<svg width="6164" height="3576" viewBox="0 0 6164 3576" fill="none" xmlns="http://www.w3.org/2000/svg">
<g clip-path="url(#clip0_812_3167)">
<path d="M4743.25 312.587C4712.08 292.924 4671.03 293.841 4640.91 315.076C4616.81 332.057 4603.63 356.821 4600.97 382.4C4599.26 398.748 4591.46 413.862 4580.34 425.956L4572.6 434.373L4370.07 248L4183.52 450.72L4173.41 441.421C4161.17 430.153 4152.59 415.423 4149.15 399.155C4145.27 380.828 4135.9 363.496 4121.06 349.841C4078.75 310.901 4010.24 318.311 3977.99 369.481C3958.32 400.648 3959.24 441.704 3980.48 471.83C3997.46 495.927 4022.22 509.107 4047.8 511.777C4064.15 513.485 4079.26 521.28 4091.34 532.412L4100.55 540.886L3913.46 744.206L4115.98 930.578L4119.36 926.901C4130.5 914.808 4138.3 899.693 4140 883.346C4142.67 857.767 4155.84 833.002 4179.93 816.021C4210.06 794.787 4251.1 793.87 4282.28 813.532C4333.45 845.797 4340.86 914.299 4301.92 956.61C4288.27 971.453 4270.94 980.82 4252.61 984.7C4236.34 988.139 4221.6 996.715 4210.34 1008.96L4206.14 1013.53L4409.66 1200.8L4596.75 997.484L4598.49 999.091C4610.59 1010.22 4619.61 1024.64 4622.67 1040.78C4627.45 1066.05 4642.64 1089.64 4668.06 1104.56C4699.84 1123.22 4740.82 1120.72 4770.26 1098.54C4818.58 1062.15 4820.27 993.264 4777.96 954.324C4763.12 940.67 4745.06 932.762 4726.49 930.42C4709.98 928.338 4694.6 921.019 4682.36 909.751L4679.71 907.318L4866.26 704.598L4662.74 517.321L4671.31 508.01C4682.58 495.769 4697.31 487.194 4713.58 483.755C4731.91 479.885 4749.24 470.507 4762.89 455.664C4801.83 413.353 4794.42 344.84 4743.25 312.587Z" fill="#EFAC00"/>
<path d="M4440.29 2174.6C4450.95 2106.3 4418.78 2036.26 4359.67 2000.11C4312.38 1971.22 4259.85 1966.91 4213.71 1981.31C4184.24 1990.5 4152.35 1988.29 4123.18 1978.08L4102.9 1971L4272.79 1485.59L3783.89 1314.72L3781.66 1321.1C3771.35 1350.53 3770.19 1382.5 3778.91 1412.49C3788.74 1446.25 3788.55 1483.23 3776.04 1518.93C3740.41 1620.74 3620.26 1668.95 3521.45 1612.76C3461.24 1578.52 3426.37 1509.75 3434.88 1441.16C3441.67 1386.25 3471.06 1342.59 3511.1 1315.58C3536.7 1298.34 3554.84 1272.06 3565 1242.98L3566.48 1238.79L3076.13 1067.44L2906.23 1552.85L2895.31 1549.04C2866.14 1538.86 2839.83 1520.71 2822.51 1495.17C2795.42 1455.18 2751.64 1425.81 2696.65 1418.99C2627.88 1410.45 2559.04 1445.19 2524.79 1505.23C2468.55 1603.81 2517.01 1723.74 2619.05 1759.41C2654.83 1771.92 2691.89 1772.12 2725.7 1762.37C2755.71 1753.69 2787.74 1754.88 2817.28 1765.21L2830.36 1769.78L2658.29 2261.4L3148.64 2432.76L3153.3 2419.45C3163.5 2390.35 3165.69 2358.53 3156.45 2329.11C3141.98 2283.05 3146.26 2230.59 3175.15 2183.45C3211.31 2124.51 3281.46 2092.45 3349.9 2103.15C3462.25 2120.73 3526.13 2233.26 3490.49 2335.08C3477.99 2370.78 3455.08 2399.79 3426.34 2420.09C3400.83 2438.1 3381.81 2463.82 3371.5 2493.26L3366.09 2508.75L3855 2679.63L4027.07 2188.01L4049.54 2195.87C4079.08 2206.19 4104.83 2225.2 4122.91 2250.67C4143.25 2279.36 4172.37 2302.26 4208.15 2314.78C4310.06 2350.35 4422.75 2286.7 4440.29 2174.6Z" fill="#97D7BE"/>
<path d="M4992.08 916.306C4949.42 953.875 4932.85 1015.06 4951.08 1068.97C4965.66 1112.08 4996.51 1142.43 5033.16 1157.56C5056.57 1167.23 5075.49 1185.4 5088.52 1207.17L5093.48 1215.47L4729.62 1433.9L4935.77 1778.69L4942.96 1774.38C4964.95 1761.18 4982.5 1741.59 4992.76 1718.06C5004.33 1691.55 5023.9 1668.27 5050.57 1652.28C5126.58 1606.64 5227.65 1639.29 5260.35 1726.76C5280.27 1780.05 5266.07 1841.84 5224.63 1880.75C5191.48 1911.87 5149.98 1924.05 5110.55 1920.08C5085.35 1917.53 5060.11 1924.6 5038.38 1937.66L5032.8 1941.01L5263.68 2327.18L5627.55 2108.75L5618.48 2093.59C5605.47 2071.82 5586.53 2053.65 5563.12 2043.98C5526.48 2028.85 5495.61 1998.5 5481.04 1955.38C5462.81 1901.48 5479.37 1840.28 5522.03 1802.71C5592.04 1741.04 5696.54 1760.03 5742.09 1836.2C5758.05 1862.91 5764.35 1892.69 5762.07 1921.52C5760.04 1947.14 5766.29 1972.7 5779.46 1994.73L5789.48 2011.51L6155.13 1792.01L5924.25 1405.84L5913.3 1412.41C5891.56 1425.45 5873.43 1444.42 5863.79 1467.89C5848.68 1504.6 5818.39 1535.53 5775.36 1550.13C5721.55 1568.4 5660.49 1551.8 5623 1509.04C5561.45 1438.89 5580.4 1334.18 5656.42 1288.54C5683.06 1272.54 5712.8 1266.23 5741.57 1268.52C5767.12 1270.55 5792.64 1264.29 5814.64 1251.07L5827.2 1243.52L5621.06 898.726L5255.42 1118.22L5249.5 1108.31C5236.33 1086.28 5230.09 1060.72 5232.11 1035.1C5234.38 1006.27 5228.09 976.496 5212.13 949.781C5166.58 873.628 5062.09 854.637 4992.08 916.306Z" fill="#006FA5"/>
<path d="M5426.78 2628.36C5374.83 2589.36 5302.56 2585.05 5246.56 2618C5201.76 2644.34 5175.06 2685.93 5166.68 2730.48C5161.33 2758.93 5145.44 2784.35 5124.14 2803.99L5116.04 2811.46L4787.01 2455L4449.69 2765.98L4456.19 2773.03C4476.07 2794.56 4502.07 2809.64 4530.76 2815.67C4563.08 2822.46 4593.66 2838.95 4617.78 2865.07C4686.52 2939.53 4673.6 3060.27 4583.46 3117.23C4528.54 3151.92 4456.15 3150.41 4403 3113.07C4360.48 3083.2 4337.19 3039.6 4332.43 2994.52C4329.38 2965.72 4315.6 2939.11 4295.95 2917.83L4290.91 2912.37L3913.13 3260.67L4242.16 3617.13L4256.98 3603.47C4278.28 3583.83 4294.17 3558.43 4299.52 3529.96C4307.9 3485.41 4334.62 3443.82 4379.4 3417.48C4435.39 3384.53 4507.64 3388.84 4559.61 3427.84C4644.88 3491.87 4648.03 3613.24 4573.51 3681.94C4547.38 3706.04 4515.56 3720.01 4482.8 3724.16C4453.7 3727.86 4426.6 3740.79 4405.03 3760.68L4388.62 3775.8L4719.26 4134L5097.04 3785.7L5087.13 3774.97C5067.48 3753.69 5042.06 3737.8 5013.57 3732.46C4969 3724.09 4927.39 3697.38 4901.03 3652.63C4868.06 3596.67 4872.37 3524.44 4911.42 3472.52C4975.48 3387.3 5096.92 3384.16 5165.67 3458.63C5189.76 3484.74 5203.76 3516.55 5207.92 3549.29C5211.62 3578.35 5224.56 3605.46 5244.45 3627.01L5255.82 3639.33L5593.13 3328.35L5262.49 2970.15L5272.19 2961.22C5293.76 2941.35 5320.87 2928.4 5349.96 2924.71C5382.73 2920.55 5414.55 2906.56 5440.68 2882.48C5515.17 2813.78 5512.03 2692.39 5426.78 2628.36Z" fill="#C51670"/>
</g>
<defs>
<clipPath id="clip0_812_3167">
<rect width="6164" height="3576" fill="white"/>
</clipPath>
</defs>
</svg>
