<svg width="440" height="956" viewBox="0 0 440 956" fill="none" xmlns="http://www.w3.org/2000/svg">
<g clip-path="url(#clip0_813_3177)">
<rect width="440" height="956" fill="white"/>
<g filter="url(#filter0_f_813_3177)">
<ellipse cx="-1.5" cy="516.5" rx="150.5" ry="116.5" fill="#2D9DF9" fill-opacity="0.81"/>
<path d="M-1.5 399.5C81.7683 399.5 149.5 451.771 149.5 516.5C149.5 581.229 81.7683 633.5 -1.5 633.5C-84.7683 633.5 -152.5 581.229 -152.5 516.5C-152.5 451.771 -84.7683 399.5 -1.5 399.5Z" stroke="black"/>
</g>
<path d="M411.34 -41.8837C404.075 -46.4856 394.512 -46.2711 387.493 -41.3012C381.879 -37.3269 378.808 -31.5308 378.188 -25.5442C377.79 -21.7181 375.972 -18.1807 373.38 -15.3502L371.577 -13.3802L324.39 -57L280.924 -9.55414L278.567 -11.7306C275.715 -14.3678 273.717 -17.8153 272.916 -21.6228C272.012 -25.9122 269.829 -29.9687 266.371 -33.1645C256.513 -42.2783 240.55 -40.5439 233.035 -28.568C228.454 -21.2733 228.667 -11.6644 233.615 -4.61336C237.571 1.02645 243.341 4.11114 249.301 4.73602C253.11 5.13584 256.632 6.96014 259.447 9.56558L261.592 11.5488L218 59.135L265.188 102.755L265.976 101.894C268.57 99.0637 270.388 95.5263 270.784 91.7002C271.406 85.7135 274.474 79.9175 280.088 75.9432C287.108 70.9732 296.671 70.7588 303.935 75.3606C315.857 82.9122 317.584 98.9446 308.511 108.847C305.33 112.321 301.291 114.514 297.021 115.422C293.231 116.227 289.796 118.234 287.174 121.099L286.193 122.168L333.613 166L377.205 118.414L377.611 118.79C380.429 121.395 382.532 124.769 383.244 128.547C384.359 134.462 387.896 139.983 393.819 143.475C401.223 147.841 410.773 147.256 417.632 142.067C428.89 133.549 429.285 117.426 419.427 108.312C415.969 105.117 411.762 103.266 407.433 102.718C403.588 102.23 400.003 100.517 397.151 97.8802L396.534 97.3109L440 49.865L392.58 6.03342L394.578 3.85429C397.204 0.989372 400.636 -1.01765 404.426 -1.82258C408.696 -2.72812 412.734 -4.92315 415.916 -8.39706C424.989 -18.2998 423.262 -34.3349 411.34 -41.8837Z" fill="#EFAC00"/>
<path d="M22.9877 571.557C34.1072 569.168 42.9686 560.097 45.0351 548.886C46.6849 539.92 44.2493 531.596 39.3181 525.358C36.1682 521.373 34.6275 516.345 34.4758 511.263L34.3674 507.73L118.943 505.205L116.362 420.035L115.251 420.069C110.122 420.221 105.144 421.927 101.051 425.035C96.4454 428.535 90.7532 430.686 84.5325 430.87C66.7935 431.4 52.3051 415.788 55.1093 397.298C56.8187 386.03 65.3268 376.62 76.3635 373.883C85.1971 371.689 93.6367 373.628 100.146 378.186C104.304 381.101 109.41 382.337 114.476 382.184L115.206 382.165L112.614 296.743L28.0387 299.268L27.9799 297.366C27.8235 292.285 29.0596 287.173 31.9613 283.008C36.5059 276.488 38.4359 268.032 36.2417 259.184C33.4983 248.118 24.1038 239.591 12.8626 237.871C-5.59525 235.046 -21.1604 249.559 -20.6214 267.336C-20.434 273.569 -18.2792 279.274 -14.7882 283.892C-11.6854 287.99 -9.98021 292.981 -9.8246 298.125L-9.75642 300.405L-95.4138 302.961L-92.822 388.382L-90.5037 388.314C-85.4323 388.165 -80.4159 386.624 -76.441 383.47C-70.2191 378.532 -61.9095 376.096 -52.966 377.755C-41.7812 379.833 -32.7194 388.718 -30.3287 399.862C-26.4048 418.155 -39.9232 434.602 -57.6622 435.131C-63.8829 435.315 -69.6901 433.507 -74.5022 430.29C-78.7736 427.434 -83.8453 426.028 -88.9745 426.18L-91.674 426.263L-89.0933 511.434L-3.43584 508.878L-3.31731 512.793C-3.1617 517.938 -4.56261 523.015 -7.40951 527.293C-10.6174 532.109 -12.418 537.932 -12.2306 544.166C-11.6854 561.917 4.73531 575.473 22.9877 571.557Z" fill="#97D7BE"/>
<path d="M338.537 235.108C325.608 246.449 320.588 264.919 326.113 281.193C330.53 294.206 339.879 303.366 350.987 307.935C358.083 310.853 363.816 316.337 367.765 322.911L369.268 325.414L259 391.35L321.472 495.432L323.652 494.129C330.317 490.146 335.634 484.231 338.745 477.128C342.251 469.126 348.182 462.1 356.262 457.271C379.299 443.495 409.926 453.351 419.837 479.755C425.872 495.842 421.57 514.494 409.011 526.24C398.964 535.634 386.39 539.31 374.44 538.111C366.802 537.342 359.154 539.476 352.568 543.417L350.877 544.43L420.847 661L531.115 595.064L528.368 590.489C524.424 583.915 518.686 578.432 511.59 575.513C500.487 570.944 491.133 561.784 486.716 548.766C481.191 532.497 486.212 514.022 499.14 502.681C520.356 484.065 552.024 489.798 565.826 512.791C570.665 520.855 572.574 529.844 571.882 538.547C571.268 546.279 573.162 553.995 577.152 560.647L580.191 565.71L691 499.451L621.031 382.881L617.712 384.864C611.125 388.801 605.631 394.528 602.707 401.611C598.129 412.692 588.952 422.028 575.909 426.437C559.604 431.952 541.099 426.941 529.736 414.032C511.085 392.856 516.829 361.248 539.866 347.472C547.94 342.643 556.951 340.737 565.67 341.428C573.412 342.041 581.148 340.15 587.812 336.162L591.621 333.883L529.148 229.801L418.344 296.06L416.549 293.069C412.559 286.417 410.665 278.701 411.279 270.969C411.966 262.266 410.062 253.277 405.223 245.213C391.421 222.225 359.753 216.492 338.537 235.108Z" fill="#006FA5"/>
<path d="M436.184 759.476C424.062 750.369 407.199 749.362 394.134 757.056C383.68 763.206 377.45 772.917 375.495 783.316C374.247 789.959 370.539 795.894 365.57 800.479L363.677 802.224L286.904 719L208.198 791.605L209.714 793.251C214.352 798.279 220.418 801.799 227.114 803.208C234.655 804.791 241.79 808.642 247.417 814.739C263.457 832.125 260.442 860.314 239.41 873.612C226.595 881.712 209.705 881.359 197.302 872.641C187.381 865.668 181.946 855.488 180.837 844.963C180.126 838.24 176.91 832.027 172.325 827.057L171.148 825.783L83 907.101L159.774 990.324L163.231 987.135C168.201 982.55 171.909 976.619 173.157 969.973C175.111 959.573 181.347 949.862 191.795 943.712C204.861 936.018 221.72 937.025 233.846 946.132C253.741 961.08 254.475 989.416 237.089 1005.46C230.992 1011.08 223.567 1014.34 215.922 1015.31C209.133 1016.18 202.808 1019.2 197.776 1023.84L193.947 1027.37L271.096 1111L359.245 1029.68L356.932 1027.18C352.347 1022.21 346.416 1018.5 339.77 1017.25C329.37 1015.3 319.659 1009.06 313.509 998.613C305.815 985.547 306.822 968.684 315.933 956.563C330.882 936.667 359.218 935.933 375.258 953.32C380.88 959.416 384.146 966.841 385.116 974.486C385.98 981.271 388.999 987.6 393.642 992.632L396.294 995.509L475 922.904L397.851 839.273L400.114 837.189C405.146 832.55 411.471 829.526 418.261 828.663C425.905 827.693 433.33 824.427 439.427 818.805C456.809 802.765 456.075 774.424 436.184 759.476Z" fill="#C51670"/>
</g>
<defs>
<filter id="filter0_f_813_3177" x="-1553" y="-1001" width="3103" height="3035" filterUnits="userSpaceOnUse" color-interpolation-filters="sRGB">
<feFlood flood-opacity="0" result="BackgroundImageFix"/>
<feBlend mode="normal" in="SourceGraphic" in2="BackgroundImageFix" result="shape"/>
<feGaussianBlur stdDeviation="700" result="effect1_foregroundBlur_813_3177"/>
</filter>
<clipPath id="clip0_813_3177">
<rect width="440" height="956" fill="white"/>
</clipPath>
</defs>
</svg>
