<svg width="2580" height="2579" viewBox="0 0 2580 2579" fill="none" xmlns="http://www.w3.org/2000/svg">
<path d="M1298.73 499.684C1414.63 500.972 1510.52 328.113 1511.81 212.21C1513.09 96.3033 1420.18 1.30523 1304.28 0.0132306C1188.38 -1.27477 1093.37 91.6403 1092.08 207.542C1090.8 323.446 1182.82 498.394 1298.73 499.684Z" fill="white"/>
<path d="M254.3 919.714C354.032 978.78 551.554 986.558 610.623 886.826C669.69 787.094 567.935 617.623 468.204 558.555C368.47 499.488 239.744 532.45 180.672 632.181C121.604 731.915 154.569 860.648 254.3 919.714Z" fill="white"/>
<path d="M601.847 1676.3C545.01 1575.28 347.366 1578.67 246.347 1635.51C145.326 1692.35 109.509 1820.31 166.342 1921.33C223.18 2022.35 351.149 2058.17 452.166 2001.33C553.186 1944.5 658.682 1777.33 601.847 1676.3Z" fill="white"/>
<path d="M1281.17 2078.65C1165.27 2077.36 1069.38 2250.22 1068.09 2366.12C1066.81 2482.03 1159.71 2577.02 1275.62 2578.32C1391.52 2579.6 1486.53 2486.69 1487.82 2370.79C1489.1 2254.88 1397.08 2079.94 1281.17 2078.65Z" fill="white"/>
<path d="M2206.03 1311.38C2182.79 1307.37 2157.94 1303.05 2132.07 1298.53C2158.03 1294.58 2182.97 1290.81 2206.3 1287.32C2372.89 1262.4 2593.62 1274.17 2579.23 1134.9C2565.36 1000.72 2044.54 1189.43 1873.53 960.83C1766.92 696.004 2198.58 348.81 2091.09 267.301C1979.53 182.702 1875 377.482 1767.22 506.923C1752.13 525.045 1735.97 544.406 1719.12 564.542C1728.68 540.091 1737.89 516.608 1746.53 494.665C1808.24 337.934 1928.8 152.657 1800.99 95.4848C1677.86 40.4078 1580.87 585.801 1297.39 619.606C1014.74 579.512 929.891 32.0917 805.56 84.4207C676.511 138.739 792.933 326.652 851.142 484.714C859.292 506.844 867.977 530.527 876.993 555.185C860.597 534.678 844.864 514.96 830.18 496.505C725.302 364.697 625.129 167.647 511.711 249.749C402.445 328.849 826.275 685.541 713.814 947.94C537.767 1172.67 21.2623 972.447 4.41529 1106.28C-13.0677 1245.2 207.88 1238.34 373.87 1266.96C397.11 1270.96 421.963 1275.28 447.826 1279.8C421.868 1283.75 396.925 1287.52 373.601 1291.01C207.013 1315.93 -13.7237 1304.16 0.669316 1443.43C14.5393 1577.61 535.358 1388.91 706.372 1617.5C812.974 1882.33 381.319 2229.52 488.803 2311.03C600.368 2395.63 704.895 2200.85 812.676 2071.41C827.766 2053.28 843.933 2033.92 860.78 2013.78C851.218 2038.24 842.009 2061.72 833.369 2083.67C771.659 2240.4 651.095 2425.67 778.906 2482.85C902.042 2537.92 999.031 1992.53 1282.51 1958.73C1565.16 1998.82 1650.01 2546.24 1774.34 2493.91C1903.39 2439.59 1786.96 2251.68 1728.76 2093.62C1720.61 2071.49 1711.92 2047.81 1702.9 2023.15C1719.3 2043.65 1735.03 2063.37 1749.72 2081.83C1854.59 2213.64 1954.77 2410.68 2068.19 2328.58C2177.45 2249.48 1753.62 1892.79 1866.08 1630.39C2042.13 1405.66 2558.64 1605.88 2575.48 1472.05C2592.97 1333.13 2372.02 1340 2206.03 1311.38ZM1289.95 1289.17C1289.95 1289.17 1289.95 1289.17 1289.95 1289.17H1289.95Z" fill="white"/>
<path d="M2325.6 1658.62C2225.86 1599.56 2028.34 1591.78 1969.27 1691.51C1910.21 1791.24 2011.96 1960.71 2111.69 2019.78C2211.43 2078.85 2340.15 2045.89 2399.23 1946.16C2458.29 1846.42 2425.33 1717.69 2325.6 1658.62Z" fill="white"/>
<path d="M1978.05 902.028C2034.89 1003.05 2232.53 999.661 2333.55 942.826C2434.57 885.987 2470.39 758.025 2413.55 657.002C2356.72 555.982 2228.75 520.164 2127.73 577C2026.71 633.837 1921.21 801.007 1978.05 902.028Z" fill="white"/>
<path d="M1800.99 95.4847C1677.86 40.4077 1580.87 585.801 1297.39 619.606C1014.74 579.512 929.894 32.0917 805.563 84.4207C676.514 138.739 792.936 326.652 851.145 484.714C928.76 695.468 1054.79 1046.68 1054.79 1046.68C1054.79 1046.68 1128.05 1287.37 1289.95 1289.17C1451.86 1290.97 1530.45 1051.97 1530.45 1051.97C1530.45 1051.97 1664.25 703.639 1746.53 494.665C1808.24 337.934 1928.81 152.657 1800.99 95.4847Z" fill="#59098B"/>
<path d="M1511.81 212.21C1510.52 328.113 1414.63 500.971 1298.73 499.684C1182.82 498.394 1090.8 323.447 1092.08 207.542C1093.37 91.6403 1188.38 -1.27477 1304.28 0.0132306C1420.19 1.30523 1513.1 96.3033 1511.81 212.21Z" fill="#59098B"/>
<path d="M511.714 249.749C402.448 328.849 826.278 685.54 713.817 947.939C537.77 1172.67 21.2648 972.447 4.41784 1106.28C-13.0652 1245.2 207.883 1238.34 373.873 1266.96C595.199 1305.12 962.371 1371.58 962.371 1371.58C962.371 1371.58 1207.44 1428.48 1289.95 1289.16C1372.47 1149.85 1204.78 962.287 1204.78 962.287C1204.78 962.287 970.021 672.246 830.183 496.504C725.305 364.697 625.132 167.647 511.714 249.749Z" fill="#C51670"/>
<path d="M468.208 558.555C567.938 617.622 669.694 787.094 610.627 886.826C551.558 986.557 354.036 978.78 254.304 919.714C154.574 860.648 121.609 731.914 180.676 632.182C239.748 532.45 368.474 499.488 468.208 558.555Z" fill="#C51670"/>
<path d="M0.669404 1443.43C14.5394 1577.61 535.358 1388.91 706.372 1617.5C812.974 1882.33 381.319 2229.52 488.803 2311.03C600.368 2395.63 704.896 2200.85 812.677 2071.41C956.388 1898.82 1197.53 1614.07 1197.53 1614.07C1197.53 1614.07 1369.34 1430.28 1289.95 1289.17C1210.55 1148.05 964.28 1199.49 964.28 1199.49C964.28 1199.49 595.716 1257.78 373.6 1291.01C207.013 1315.93 -13.7246 1304.16 0.669404 1443.43Z" fill="#006FA5"/>
<path d="M246.347 1635.51C347.366 1578.68 545.01 1575.29 601.847 1676.31C658.682 1777.33 553.186 1944.5 452.166 2001.34C351.148 2058.18 223.18 2022.36 166.342 1921.34C109.509 1820.31 145.325 1692.35 246.347 1635.51Z" fill="#006FA5"/>
<path d="M778.907 2482.85C902.043 2537.92 999.032 1992.53 1282.51 1958.73C1565.16 1998.82 1650.01 2546.24 1774.34 2493.91C1903.39 2439.59 1786.96 2251.68 1728.76 2093.62C1651.14 1882.86 1525.11 1531.65 1525.11 1531.65C1525.11 1531.65 1451.85 1290.96 1289.95 1289.17C1128.04 1287.36 1049.45 1526.36 1049.45 1526.36C1049.45 1526.36 915.648 1874.69 833.37 2083.67C771.66 2240.4 651.096 2425.68 778.907 2482.85Z" fill="#00FF1E"/>
<path d="M1068.09 2366.12C1069.38 2250.22 1165.27 2077.36 1281.17 2078.65C1397.08 2079.94 1489.1 2254.88 1487.82 2370.79C1486.53 2486.69 1391.53 2579.6 1275.62 2578.32C1159.71 2577.02 1066.81 2482.03 1068.09 2366.12Z" fill="#00FF1E"/>
<path d="M2068.19 2328.58C2177.45 2249.48 1753.62 1892.79 1866.09 1630.39C2042.13 1405.66 2558.64 1605.88 2575.48 1472.05C2592.97 1333.13 2372.02 1340 2206.03 1311.38C1984.7 1273.21 1617.53 1206.75 1617.53 1206.75C1617.53 1206.75 1372.46 1149.85 1289.95 1289.17C1207.43 1428.48 1375.12 1616.04 1375.12 1616.04C1375.12 1616.04 1609.88 1906.08 1749.72 2081.83C1854.6 2213.63 1954.77 2410.68 2068.19 2328.58Z" fill="#EFAC00"/>
<path d="M2111.69 2019.78C2011.96 1960.71 1910.21 1791.24 1969.27 1691.51C2028.34 1591.78 2225.86 1599.56 2325.6 1658.62C2425.33 1717.69 2458.29 1846.42 2399.23 1946.15C2340.15 2045.89 2211.43 2078.85 2111.69 2019.78Z" fill="#EFAC00"/>
<path d="M2579.23 1134.91C2565.36 1000.73 2044.54 1189.43 1873.53 960.834C1766.92 696.008 2198.58 348.814 2091.09 267.305C1979.53 182.706 1875 377.486 1767.22 506.927C1623.51 679.521 1382.37 964.27 1382.37 964.27C1382.37 964.27 1210.55 1148.06 1289.95 1289.17C1369.35 1430.29 1615.62 1378.85 1615.62 1378.85C1615.62 1378.85 1984.18 1320.56 2206.3 1287.33C2372.89 1262.41 2593.62 1274.18 2579.23 1134.91Z" fill="#97D7BE"/>
<path d="M2333.55 942.826C2232.53 999.661 2034.89 1003.05 1978.05 902.028C1921.21 801.007 2026.71 633.838 2127.73 577C2228.75 520.164 2356.72 555.982 2413.55 657.002C2470.39 758.025 2434.57 885.987 2333.55 942.826Z" fill="#97D7BE"/>
</svg>
