<svg width="440" height="956" viewBox="0 0 440 956" fill="none" xmlns="http://www.w3.org/2000/svg">
<g clip-path="url(#clip0_814_3189)">
<rect width="440" height="956" fill="white"/>
<g filter="url(#filter0_f_814_3189)">
<ellipse cx="-1.5" cy="516.5" rx="150.5" ry="116.5" fill="#2D9DF9" fill-opacity="0.81"/>
<path d="M-1.5 399.5C81.7683 399.5 149.5 451.771 149.5 516.5C149.5 581.229 81.7683 633.5 -1.5 633.5C-84.7683 633.5 -152.5 581.229 -152.5 516.5C-152.5 451.771 -84.7683 399.5 -1.5 399.5Z" stroke="black"/>
</g>
<path d="M231.34 15.1163C224.075 10.5144 214.512 10.7289 207.493 15.6988C201.879 19.6731 198.808 25.4692 198.188 31.4558C197.79 35.2819 195.972 38.8193 193.38 41.6498L191.577 43.6198L144.39 0L100.924 47.4459L98.5675 45.2694C95.7154 42.6322 93.7174 39.1847 92.9161 35.3772C92.012 31.0878 89.8295 27.0313 86.3712 23.8355C76.513 14.7217 60.55 16.4561 53.0351 28.432C48.4539 35.7267 48.6674 45.3356 53.615 52.3866C57.5714 58.0264 63.3415 61.1111 69.3012 61.736C73.1101 62.1358 76.6316 63.9601 79.4467 66.5656L81.5923 68.5488L38 116.135L85.1877 159.755L85.9758 158.894C88.5695 156.064 90.3883 152.526 90.7837 148.7C91.4058 142.714 94.4739 136.918 100.088 132.943C107.108 127.973 116.671 127.759 123.935 132.361C135.857 139.912 137.584 155.945 128.511 165.847C125.33 169.321 121.291 171.514 117.021 172.422C113.231 173.227 109.796 175.234 107.174 178.099L106.193 179.168L153.613 223L197.205 175.414L197.611 175.79C200.429 178.395 202.532 181.769 203.244 185.547C204.359 191.462 207.896 196.983 213.819 200.475C221.223 204.841 230.773 204.256 237.632 199.067C248.89 190.549 249.285 174.426 239.427 165.312C235.969 162.117 231.762 160.266 227.433 159.718C223.588 159.23 220.003 157.517 217.151 154.88L216.534 154.311L260 106.865L212.58 63.0334L214.578 60.8543C217.204 57.9894 220.636 55.9824 224.426 55.1774C228.696 54.2719 232.734 52.0768 235.916 48.6029C244.989 38.7002 243.262 22.6651 231.34 15.1163Z" fill="#EFAC00"/>
<path d="M182.135 317.303C182.839 310.454 179.268 303.654 173.19 300.366C168.329 297.737 163.074 297.581 158.554 299.252C155.667 300.319 152.48 300.265 149.521 299.401L147.464 298.802L161.839 249.64L112.248 235.181L112.06 235.827C111.187 238.808 111.239 241.993 112.265 244.931C113.421 248.238 113.596 251.918 112.537 255.533C109.522 265.844 97.8086 271.263 87.6728 266.187C81.4956 263.093 77.6626 256.433 78.1503 249.567C78.5387 244.071 81.2365 239.576 85.083 236.682C87.5422 234.833 89.2107 232.125 90.0707 229.18L90.1958 228.757L40.4578 214.256L26.0827 263.418L24.9751 263.096C22.016 262.235 19.2999 260.566 17.4417 258.116C14.5331 254.279 10.0187 251.585 4.50597 251.192C-2.38777 250.699 -9.06265 254.511 -12.1587 260.661C-17.2427 270.758 -11.788 282.436 -1.43746 285.453C2.19197 286.512 5.88446 286.34 9.20038 285.195C12.1444 284.176 15.3409 284.128 18.3364 285.002L19.6635 285.389L5.10355 335.18L54.8416 349.68L55.2362 348.333C56.0996 345.385 56.1501 342.209 55.0756 339.33C53.3932 334.824 53.5438 329.584 56.1746 324.746C59.4664 318.696 66.2854 315.142 73.1586 315.853C84.4401 317.018 91.3928 327.88 88.3777 338.191C87.3194 341.807 85.1897 344.811 82.4341 346.979C79.9882 348.904 78.2279 351.56 77.3556 354.541L76.8981 356.111L126.489 370.57L141.049 320.78L143.329 321.445C146.325 322.318 148.989 324.075 150.924 326.515C153.1 329.263 156.12 331.39 159.75 332.449C170.087 335.459 180.977 328.543 182.135 317.303Z" fill="#97D7BE"/>
<path d="M241.184 727.476C229.062 718.369 212.199 717.362 199.134 725.056C188.68 731.206 182.45 740.917 180.495 751.316C179.247 757.959 175.539 763.894 170.57 768.479L168.677 770.224L91.9038 687L13.1977 759.605L14.714 761.251C19.3525 766.279 25.4179 769.799 32.1139 771.208C39.6552 772.791 46.7896 776.642 52.4166 782.739C68.4566 800.125 65.4418 828.314 44.41 841.612C31.595 849.712 14.7051 849.359 2.30163 840.641C-7.61937 833.668 -13.054 823.488 -14.1633 812.963C-14.8745 806.24 -18.0905 800.027 -22.6752 795.057L-23.8516 793.783L-112 875.101L-35.2263 958.324L-31.7688 955.135C-26.7994 950.55 -23.0912 944.619 -21.8433 937.973C-19.8886 927.573 -13.6533 917.862 -3.20452 911.712C9.86096 904.018 26.7195 905.025 38.8457 914.132C58.7413 929.08 59.4749 957.416 42.0886 973.456C35.992 979.083 28.5667 982.344 20.9225 983.315C14.1325 984.178 7.80791 987.197 2.77584 991.84L-1.05308 995.369L76.0964 1079L164.245 997.682L161.932 995.177C157.347 990.208 151.416 986.499 144.77 985.251C134.37 983.297 124.659 977.062 118.509 966.613C110.815 953.547 111.822 936.684 120.933 924.563C135.882 904.667 164.218 903.933 180.258 921.32C185.88 927.416 189.146 934.841 190.116 942.486C190.98 949.271 193.999 955.6 198.642 960.632L201.294 963.509L280 890.904L202.851 807.273L205.114 805.189C210.146 800.55 216.471 797.526 223.261 796.663C230.905 795.693 238.33 792.427 244.427 786.805C261.809 770.765 261.075 742.424 241.184 727.476Z" fill="#C51670"/>
<path d="M28.2665 406.05C21.2337 412.226 18.5027 422.286 21.5083 431.149C23.911 438.236 28.9967 443.224 35.039 445.713C38.8992 447.302 42.018 450.289 44.1661 453.869L44.984 455.232L-15 491.143L18.9838 547.828L20.1696 547.118C23.795 544.949 26.6874 541.728 28.3798 537.859C30.2872 533.501 33.5136 529.675 37.9087 527.045C50.4404 519.542 67.1012 524.909 72.4925 539.29C75.7754 548.051 73.4349 558.21 66.603 564.607C61.1381 569.723 54.2978 571.725 47.797 571.072C43.6425 570.653 39.4822 571.815 35.8993 573.962L34.9795 574.513L73.0416 638L133.025 602.09L131.531 599.598C129.386 596.018 126.264 593.031 122.404 591.442C116.365 588.953 111.276 583.965 108.873 576.875C105.868 568.015 108.599 557.952 115.632 551.776C127.173 541.637 144.4 544.76 151.908 557.282C154.54 561.674 155.578 566.569 155.202 571.309C154.868 575.52 155.898 579.723 158.069 583.345L159.722 586.103L220 550.017L181.938 486.53L180.132 487.61C176.55 489.754 173.561 492.873 171.97 496.731C169.48 502.766 164.488 507.851 157.393 510.252C148.523 513.255 138.456 510.526 132.275 503.496C122.13 491.963 125.254 474.749 137.786 467.246C142.178 464.616 147.08 463.578 151.823 463.954C156.034 464.288 160.243 463.258 163.868 461.086L165.939 459.845L131.956 403.159L71.6802 439.245L70.7038 437.616C68.5332 433.994 67.503 429.791 67.8369 425.58C68.2105 420.84 67.1747 415.945 64.5427 411.553C57.0345 399.033 39.8077 395.911 28.2665 406.05Z" fill="#006FA5"/>
</g>
<defs>
<filter id="filter0_f_814_3189" x="-1553" y="-1001" width="3103" height="3035" filterUnits="userSpaceOnUse" color-interpolation-filters="sRGB">
<feFlood flood-opacity="0" result="BackgroundImageFix"/>
<feBlend mode="normal" in="SourceGraphic" in2="BackgroundImageFix" result="shape"/>
<feGaussianBlur stdDeviation="700" result="effect1_foregroundBlur_814_3189"/>
</filter>
<clipPath id="clip0_814_3189">
<rect width="440" height="956" fill="white"/>
</clipPath>
</defs>
</svg>
