<svg width="440" height="956" viewBox="0 0 440 956" fill="none" xmlns="http://www.w3.org/2000/svg">
<g clip-path="url(#clip0_814_3196)">
<rect width="440" height="956" fill="white"/>
<g filter="url(#filter0_f_814_3196)">
<ellipse cx="-1.5" cy="516.5" rx="150.5" ry="116.5" fill="#2D9DF9" fill-opacity="0.81"/>
<path d="M-1.5 399.5C81.7683 399.5 149.5 451.771 149.5 516.5C149.5 581.229 81.7683 633.5 -1.5 633.5C-84.7683 633.5 -152.5 581.229 -152.5 516.5C-152.5 451.771 -84.7683 399.5 -1.5 399.5Z" stroke="black"/>
</g>
<path d="M362.34 -11.8837C355.075 -16.4856 345.512 -16.2711 338.493 -11.3012C332.879 -7.32688 329.808 -1.53084 329.188 4.45582C328.79 8.28189 326.972 11.8193 324.38 14.6498L322.577 16.6198L275.39 -27L231.924 20.4459L229.567 18.2694C226.715 15.6322 224.717 12.1847 223.916 8.37722C223.012 4.08779 220.829 0.0313408 217.371 -3.16455C207.513 -12.2783 191.55 -10.5439 184.035 1.43204C179.454 8.72672 179.667 18.3356 184.615 25.3866C188.571 31.0264 194.341 34.1111 200.301 34.736C204.11 35.1358 207.632 36.9601 210.447 39.5656L212.592 41.5488L169 89.135L216.188 132.755L216.976 131.894C219.57 129.064 221.388 125.526 221.784 121.7C222.406 115.714 225.474 109.918 231.088 105.943C238.108 100.973 247.671 100.759 254.935 105.361C266.857 112.912 268.584 128.945 259.511 138.847C256.33 142.321 252.291 144.514 248.021 145.422C244.231 146.227 240.796 148.234 238.174 151.099L237.193 152.168L284.613 196L328.205 148.414L328.611 148.79C331.429 151.395 333.532 154.769 334.244 158.547C335.359 164.462 338.896 169.983 344.819 173.475C352.223 177.841 361.773 177.256 368.632 172.067C379.89 163.549 380.285 147.426 370.427 138.312C366.969 135.117 362.762 133.266 358.433 132.718C354.588 132.23 351.003 130.517 348.151 127.88L347.534 127.311L391 79.865L343.58 36.0334L345.578 33.8543C348.204 30.9894 351.636 28.9824 355.426 28.1774C359.696 27.2719 363.734 25.0768 366.916 21.6029C375.989 11.7002 374.262 -4.33487 362.34 -11.8837Z" fill="#EFAC00"/>
<path d="M335.494 204.592C325.498 213.363 321.617 227.649 325.888 240.236C329.303 250.301 336.531 257.386 345.119 260.92C350.606 263.177 355.038 267.418 358.091 272.503L359.254 274.439L274 325.438L322.3 405.94L323.986 404.932C329.138 401.852 333.249 397.277 335.655 391.783C338.366 385.594 342.951 380.16 349.198 376.425C367.009 365.769 390.688 373.392 398.351 393.815C403.017 406.258 399.69 420.684 389.98 429.769C382.213 437.035 372.491 439.878 363.252 438.95C357.347 438.356 351.434 440.007 346.342 443.055L345.035 443.838L399.131 534L484.385 483.001L482.261 479.463C479.212 474.378 474.776 470.137 469.289 467.88C460.706 464.345 453.473 457.261 450.058 447.192C445.787 434.609 449.668 420.319 459.664 411.547C476.067 397.149 500.551 401.583 511.222 419.367C514.963 425.604 516.439 432.556 515.904 439.288C515.43 445.268 516.894 451.236 519.979 456.381L522.328 460.297L608 409.049L553.903 318.887L551.337 320.422C546.245 323.466 541.997 327.896 539.737 333.374C536.197 341.945 529.102 349.166 519.017 352.576C506.411 356.841 492.104 352.966 483.319 342.981C468.899 326.603 473.34 302.155 491.151 291.5C497.393 287.765 504.36 286.291 511.102 286.825C517.087 287.299 523.068 285.837 528.221 282.753L531.165 280.99L482.865 200.487L397.197 251.735L395.809 249.421C392.724 244.277 391.26 238.308 391.734 232.328C392.265 225.597 390.793 218.645 387.052 212.407C376.381 194.627 351.897 190.193 335.494 204.592Z" fill="#006FA5"/>
<path d="M502.184 673.476C490.062 664.369 473.199 663.362 460.134 671.056C449.68 677.206 443.45 686.917 441.495 697.316C440.247 703.959 436.539 709.894 431.57 714.479L429.677 716.224L352.904 633L274.198 705.605L275.714 707.251C280.352 712.279 286.418 715.799 293.114 717.208C300.655 718.791 307.79 722.642 313.417 728.739C329.457 746.125 326.442 774.314 305.41 787.612C292.595 795.712 275.705 795.359 263.302 786.641C253.381 779.668 247.946 769.488 246.837 758.963C246.126 752.24 242.91 746.027 238.325 741.057L237.148 739.783L149 821.101L225.774 904.324L229.231 901.135C234.201 896.55 237.909 890.619 239.157 883.973C241.111 873.573 247.347 863.862 257.795 857.712C270.861 850.018 287.72 851.025 299.846 860.132C319.741 875.08 320.475 903.416 303.089 919.456C296.992 925.083 289.567 928.344 281.922 929.315C275.133 930.178 268.808 933.197 263.776 937.84L259.947 941.369L337.096 1025L425.245 943.682L422.932 941.177C418.347 936.208 412.416 932.499 405.77 931.251C395.37 929.297 385.659 923.062 379.509 912.613C371.815 899.547 372.822 882.684 381.933 870.563C396.882 850.667 425.218 849.933 441.258 867.32C446.88 873.416 450.146 880.841 451.116 888.486C451.98 895.271 454.999 901.6 459.642 906.632L462.294 909.509L541 836.904L463.851 753.273L466.114 751.189C471.146 746.55 477.471 743.526 484.261 742.663C491.905 741.693 499.33 738.427 505.427 732.805C522.809 716.765 522.075 688.424 502.184 673.476Z" fill="#C51670"/>
<path d="M537.93 589.723C537.21 579.744 530.396 570.914 520.886 567.741C513.281 565.206 505.734 566.308 499.699 569.84C495.843 572.097 491.277 572.823 486.833 572.333L483.743 571.995L491.895 498.009L417.414 489.83L417.308 490.801C416.813 495.288 417.689 499.834 419.894 503.78C422.378 508.221 423.555 513.443 422.954 518.884C421.244 534.402 405.876 545.112 390.119 540.406C380.516 537.537 373.363 528.973 372.331 519.024C371.501 511.06 374.223 503.945 378.988 498.833C382.035 495.567 383.737 491.27 384.224 486.838L384.296 486.201L309.595 478L301.443 551.986L299.78 551.804C295.336 551.319 291.036 549.616 287.764 546.578C282.643 541.821 275.516 539.104 267.542 539.932C257.571 540.968 248.996 548.108 246.122 557.69C241.403 573.423 252.136 588.759 267.682 590.466C273.133 591.066 278.364 589.888 282.812 587.412C286.761 585.211 291.315 584.336 295.814 584.83L297.807 585.05L289.55 659.982L364.251 668.183L364.476 666.155C364.966 661.719 364.239 657.16 361.978 653.311C358.44 647.287 357.336 639.75 359.875 632.162C363.053 622.673 371.899 615.866 381.896 615.148C398.305 613.969 410.972 627.759 409.262 643.277C408.661 648.719 406.376 653.556 402.986 657.355C399.976 660.726 398.131 664.972 397.636 669.459L397.378 671.821L471.859 680L480.116 605.067L483.54 605.444C488.039 605.938 492.288 607.78 495.666 610.784C499.466 614.168 504.317 616.449 509.768 617.049C525.292 618.748 539.107 606.103 537.93 589.723Z" fill="#97D7BE"/>
</g>
<defs>
<filter id="filter0_f_814_3196" x="-1553" y="-1001" width="3103" height="3035" filterUnits="userSpaceOnUse" color-interpolation-filters="sRGB">
<feFlood flood-opacity="0" result="BackgroundImageFix"/>
<feBlend mode="normal" in="SourceGraphic" in2="BackgroundImageFix" result="shape"/>
<feGaussianBlur stdDeviation="700" result="effect1_foregroundBlur_814_3196"/>
</filter>
<clipPath id="clip0_814_3196">
<rect width="440" height="956" fill="white"/>
</clipPath>
</defs>
</svg>
